<svg width="980" height="41" viewBox="0 0 980 41" fill="none" xmlns="http://www.w3.org/2000/svg">
<g filter="url(#filter0_i)">
<path d="M10.1711 3.8C8.38443 4.54667 6.99776 5.66667 6.01109 7.16C5.05109 8.65333 4.57109 10.4533 4.57109 12.56C4.57109 13.5467 4.66443 14.24 4.85109 14.64C5.03776 15.0133 5.13109 15.2267 5.13109 15.28C3.69109 15.28 2.61109 14.9867 1.89109 14.4C1.19776 13.7867 0.851094 12.7867 0.851094 11.4C0.851094 9.69333 1.54443 8.04 2.93109 6.44C4.34443 4.81333 6.14443 3.50667 8.33109 2.52C10.5178 1.50666 12.7044 0.999998 14.8911 0.999998C15.2644 0.999998 15.7978 1.02666 16.4911 1.08L10.7311 28.04H15.4111L21.1711 1.08H26.9311L21.1711 28.04H26.2511L32.0111 1.08H37.7711L31.4111 31H4.37109L10.1711 3.8ZM41.4211 31.24C39.9011 31.24 38.6344 30.72 37.6211 29.68C36.6078 28.64 36.1011 27.0133 36.1011 24.8C36.1011 22.8267 36.4878 20.76 37.2611 18.6C38.0611 16.4133 39.2344 14.5733 40.7811 13.08C42.3544 11.56 44.2211 10.8 46.3811 10.8C47.4744 10.8 48.2878 10.9867 48.8211 11.36C49.3544 11.7333 49.6211 12.2267 49.6211 12.84V13.12L50.0611 11H55.8211L52.9411 24.6C52.8344 25 52.7811 25.4267 52.7811 25.88C52.7811 27.0267 53.3278 27.6 54.4211 27.6C55.1678 27.6 55.8078 27.2533 56.3411 26.56C56.9011 25.8667 57.3411 24.96 57.6611 23.84H59.3411C58.3544 26.72 57.1278 28.68 55.6611 29.72C54.2211 30.7333 52.7678 31.24 51.3011 31.24C50.1811 31.24 49.2744 30.9333 48.5811 30.32C47.9144 29.68 47.5144 28.76 47.3811 27.56C46.6078 28.6533 45.7411 29.5467 44.7811 30.24C43.8478 30.9067 42.7278 31.24 41.4211 31.24ZM44.0211 27.36C44.6878 27.36 45.3411 27.0533 45.9811 26.44C46.6478 25.8 47.1011 24.9333 47.3411 23.84L49.2611 14.8C49.2611 14.4533 49.1278 14.12 48.8611 13.8C48.5944 13.4533 48.1811 13.28 47.6211 13.28C46.5544 13.28 45.5944 13.9067 44.7411 15.16C43.8878 16.3867 43.2211 17.88 42.7411 19.64C42.2611 21.3733 42.0211 22.9067 42.0211 24.24C42.0211 25.5733 42.2078 26.4267 42.5811 26.8C42.9811 27.1733 43.4611 27.36 44.0211 27.36ZM63.0358 31.24C61.0624 31.24 59.5291 30.8667 58.4358 30.12C57.3691 29.3733 56.8358 28.24 56.8358 26.72C56.8358 25.7333 57.0624 24.88 57.5158 24.16C57.9424 23.4133 58.4624 22.8 59.0758 22.32C59.6891 21.8133 60.5024 21.24 61.5158 20.6C62.7958 19.8267 63.7424 19.1333 64.3558 18.52C64.9958 17.88 65.3158 17.0933 65.3158 16.16C65.3158 15.5733 65.1558 15.12 64.8358 14.8C64.5424 14.4533 64.0891 14.28 63.4758 14.28C62.5958 14.28 61.8091 14.6133 61.1158 15.28C60.4224 15.9467 59.7691 17 59.1558 18.44H57.2358C58.1158 15.9333 59.2358 14.0133 60.5958 12.68C61.9558 11.32 63.7424 10.64 65.9558 10.64C67.5024 10.64 68.7824 11.0133 69.7958 11.76C70.8358 12.5067 71.3558 13.64 71.3558 15.16C71.3558 16.3067 71.1158 17.3067 70.6358 18.16C70.1558 19.0133 69.5691 19.72 68.8758 20.28C68.1824 20.8133 67.3158 21.4 66.2758 22.04C65.1024 22.76 64.2491 23.3867 63.7158 23.92C63.1824 24.4267 62.9158 25.04 62.9158 25.76C62.9158 27.1733 63.8624 27.88 65.7558 27.88C66.9558 27.88 68.0891 27.5733 69.1558 26.96C70.2491 26.3467 71.4224 25.3067 72.6758 23.84H74.0358C72.5958 26.1333 70.9824 27.9467 69.1958 29.28C67.4358 30.5867 65.3824 31.24 63.0358 31.24ZM76.6358 31.24C75.3558 31.24 74.3158 30.84 73.5158 30.04C72.7424 29.24 72.3558 28.04 72.3558 26.44C72.3558 25.7733 72.4624 24.9067 72.6758 23.84L75.3958 11H81.1558L78.2758 24.6C78.1958 25 78.1558 25.3733 78.1558 25.72C78.1558 26.8133 78.5558 27.36 79.3558 27.36C80.1024 27.36 80.7424 27.0533 81.2758 26.44C81.8091 25.8 82.2358 24.9333 82.5558 23.84L85.2758 11H91.0358L88.1558 24.6C88.0491 25 87.9958 25.4267 87.9958 25.88C87.9958 26.4133 88.1158 26.8 88.3558 27.04C88.6224 27.2533 89.0491 27.36 89.6358 27.36C90.3824 27.36 91.0224 27.04 91.5558 26.4C92.1158 25.76 92.5558 24.9067 92.8758 23.84H94.5558C93.5691 26.72 92.3424 28.68 90.8758 29.72C89.4358 30.7333 87.9824 31.24 86.5158 31.24C85.3691 31.24 84.4491 30.92 83.7558 30.28C83.0891 29.64 82.6891 28.6933 82.5558 27.44C81.6491 28.9067 80.6891 29.9067 79.6758 30.44C78.6891 30.9733 77.6758 31.24 76.6358 31.24ZM116.511 31.24C115.098 31.24 114.071 30.8133 113.431 29.96C112.791 29.1067 112.471 28.0267 112.471 26.72C112.471 26.16 112.538 25.5333 112.671 24.84C112.804 24.12 112.938 23.4267 113.071 22.76C113.231 22.0933 113.338 21.6667 113.391 21.48C113.604 20.5467 113.804 19.6267 113.991 18.72C114.178 17.8133 114.271 17.08 114.271 16.52C114.271 15.16 113.791 14.48 112.831 14.48C112.138 14.48 111.524 14.8267 110.991 15.52C110.458 16.1867 110.031 17.0667 109.711 18.16L106.991 31H101.231L104.151 17.2C104.231 16.88 104.271 16.5467 104.271 16.2C104.271 15.0267 103.871 14.44 103.071 14.44C102.324 14.44 101.671 14.7867 101.111 15.48C100.578 16.1467 100.151 17.04 99.8311 18.16L97.1111 31H91.3511L95.5911 11H101.351L100.911 13.08C102.271 11.56 103.898 10.8 105.791 10.8C108.138 10.8 109.511 11.9467 109.911 14.24C111.378 11.9733 113.231 10.84 115.471 10.84C116.831 10.84 117.911 11.2133 118.711 11.96C119.511 12.7067 119.911 13.84 119.911 15.36C119.911 16.1333 119.818 17 119.631 17.96C119.444 18.8933 119.178 20.04 118.831 21.4C118.618 22.2267 118.418 23.04 118.231 23.84C118.071 24.6133 117.991 25.2267 117.991 25.68C117.991 26.2133 118.111 26.6267 118.351 26.92C118.591 27.2133 119.004 27.36 119.591 27.36C120.231 27.36 120.671 27.28 120.911 27.12C120.751 28.48 120.258 29.5067 119.431 30.2C118.631 30.8933 117.658 31.24 116.511 31.24ZM138.31 35.56C137.323 35.56 136.457 35.48 135.71 35.32C134.963 35.16 134.31 34.7733 133.75 34.16C133.217 33.5467 132.95 32.6 132.95 31.32C132.95 29.5333 133.483 27.1333 134.55 24.12C135.643 21.1067 137.07 18.08 138.83 15.04C137.497 15.12 136.443 15.32 135.67 15.64C134.897 15.96 134.39 16.4533 134.15 17.12C134.257 17.12 134.363 17.2533 134.47 17.52C134.603 17.7867 134.67 18.0667 134.67 18.36C134.67 18.84 134.457 19.2267 134.03 19.52C133.603 19.7867 133.07 19.92 132.43 19.92C131.683 19.92 131.083 19.72 130.63 19.32C130.177 18.92 129.95 18.3467 129.95 17.6C129.95 16.6933 130.297 15.8667 130.99 15.12C131.71 14.3733 132.697 13.7867 133.95 13.36C135.203 12.9067 136.59 12.68 138.11 12.68C138.67 12.68 139.363 12.72 140.19 12.8C142.377 9.33333 144.683 6.50666 147.11 4.32C149.563 2.10666 151.897 0.999998 154.11 0.999998C155.39 0.999998 156.443 1.18666 157.27 1.56L150.99 31H145.23L148.31 16.48C147.323 16.0267 146.417 15.6933 145.59 15.48C144.763 15.2667 143.883 15.12 142.95 15.04C141.43 18.32 140.177 21.68 139.19 25.12C138.23 28.5333 137.75 31.2667 137.75 33.32C137.75 34.3333 137.937 35.08 138.31 35.56ZM150.99 3.84C149.843 4.45333 148.643 5.6 147.39 7.28C146.163 8.93333 144.963 10.9467 143.79 13.32C145.71 13.6933 147.337 14.16 148.67 14.72L150.99 3.84ZM156.549 32.16C155.669 32.16 155.015 31.9067 154.589 31.4C154.135 30.8933 153.909 30.2 153.909 29.32C153.909 28.04 154.495 26.6667 155.669 25.2C156.815 23.7067 158.175 22.44 159.749 21.4L157.429 11H163.069L164.869 19.08C166.229 17.8267 167.242 16.7333 167.909 15.8C168.602 14.8667 168.949 14.0267 168.949 13.28C168.949 13.04 168.935 12.88 168.909 12.8C168.535 12.8533 168.309 12.88 168.229 12.88C167.562 12.88 167.082 12.68 166.789 12.28C166.495 11.8533 166.349 11.3067 166.349 10.64C166.349 10.0533 166.562 9.6 166.989 9.28C167.415 8.93333 167.949 8.76 168.589 8.76C169.442 8.76 170.109 9.09333 170.589 9.76C171.069 10.4267 171.309 11.28 171.309 12.32C171.309 13.6533 170.842 15.0133 169.909 16.4C169.002 17.76 167.482 19.3867 165.349 21.28L165.949 23.84C165.975 23.9467 166.055 24.36 166.189 25.08C166.349 25.8 166.602 26.36 166.949 26.76C167.322 27.16 167.775 27.36 168.309 27.36C169.082 27.36 169.802 27.04 170.469 26.4C171.135 25.7333 171.615 24.88 171.909 23.84H173.589C172.602 26.72 171.362 28.68 169.869 29.72C168.402 30.7333 166.935 31.24 165.469 31.24C164.509 31.24 163.722 31 163.109 30.52C162.495 30.0133 161.975 29.24 161.549 28.2C161.122 27.1333 160.709 25.68 160.309 23.84L160.229 23.56C157.829 25.24 156.629 26.7333 156.629 28.04C156.709 28.0133 156.882 28 157.149 28C158.242 28 158.789 28.6533 158.789 29.96C158.789 30.7067 158.589 31.2533 158.189 31.6C157.789 31.9733 157.242 32.16 156.549 32.16ZM206.655 23.84C204.975 28.7733 202.495 31.24 199.215 31.24C197.695 31.24 196.521 30.84 195.695 30.04C194.895 29.2133 194.495 28.2 194.495 27C194.495 25.96 194.775 24.1867 195.335 21.68L196.495 16.48L189.255 31H184.535L183.455 14.24C182.975 14.8 182.548 15.6133 182.175 16.68C181.801 17.72 181.441 19.1333 181.095 20.92C180.588 23.5333 180.121 25.5333 179.695 26.92C179.295 28.3067 178.721 29.3733 177.975 30.12C177.255 30.8667 176.281 31.24 175.055 31.24C173.615 31.24 172.481 30.8 171.655 29.92C170.801 29.0133 170.375 27.92 170.375 26.64C170.375 25.7333 170.588 25.0133 171.015 24.48C171.441 23.92 172.028 23.64 172.775 23.64C173.415 23.64 173.935 23.84 174.335 24.24C174.735 24.64 174.935 25.12 174.935 25.68C174.935 26.32 174.775 26.8133 174.455 27.16C174.135 27.48 173.761 27.6133 173.335 27.56C173.335 28.5733 173.855 29.08 174.895 29.08C175.641 29.08 176.255 28.8133 176.735 28.28C177.215 27.72 177.628 26.8133 177.975 25.56C178.348 24.3067 178.748 22.4933 179.175 20.12C179.761 16.7333 180.641 14.3733 181.815 13.04C183.015 11.68 184.575 11 186.495 11H188.295L189.055 26.36L196.615 11H203.095L200.975 20.92C200.708 22.0667 200.481 23.0667 200.295 23.92C200.108 24.7733 200.015 25.36 200.015 25.68C200.015 26.8 200.548 27.36 201.615 27.36C202.361 27.36 202.961 27.1067 203.415 26.6C203.868 26.0933 204.388 25.1733 204.975 23.84H206.655ZM210.7 31.24C208.727 31.24 207.194 30.7333 206.1 29.72C205.007 28.68 204.46 27.0667 204.46 24.88C204.46 23.04 204.82 21.0133 205.54 18.8C206.26 16.5867 207.434 14.68 209.06 13.08C210.687 11.4533 212.754 10.64 215.26 10.64C218.194 10.64 219.66 11.92 219.66 14.48C219.66 15.9733 219.234 17.3467 218.38 18.6C217.527 19.8533 216.394 20.8667 214.98 21.64C213.567 22.3867 212.06 22.8133 210.46 22.92C210.407 23.72 210.38 24.2533 210.38 24.52C210.38 25.8267 210.607 26.72 211.06 27.2C211.514 27.6533 212.247 27.88 213.26 27.88C214.7 27.88 215.927 27.5467 216.94 26.88C217.98 26.2133 219.114 25.2 220.34 23.84H221.7C218.74 28.7733 215.074 31.24 210.7 31.24ZM210.78 21C211.767 20.9467 212.7 20.6 213.58 19.96C214.487 19.32 215.207 18.5067 215.74 17.52C216.3 16.5333 216.58 15.4933 216.58 14.4C216.58 13.3067 216.247 12.76 215.58 12.76C214.62 12.76 213.674 13.6 212.74 15.28C211.834 16.96 211.18 18.8667 210.78 21ZM244.652 31.24C243.025 31.24 241.825 30.8133 241.052 29.96C240.305 29.08 239.932 28 239.932 26.72C239.932 26.16 239.999 25.5333 240.132 24.84C240.265 24.12 240.399 23.4267 240.532 22.76C240.692 22.0933 240.799 21.6667 240.852 21.48C241.065 20.5467 241.265 19.6267 241.452 18.72C241.639 17.8133 241.732 17.08 241.732 16.52C241.732 15.16 241.252 14.48 240.292 14.48C239.599 14.48 238.985 14.8267 238.452 15.52C237.919 16.1867 237.492 17.0667 237.172 18.16L234.452 31H228.692L231.612 17.2C231.692 16.88 231.732 16.5467 231.732 16.2C231.732 15.0267 231.332 14.44 230.532 14.44C229.785 14.44 229.132 14.7867 228.572 15.48C228.039 16.1467 227.612 17.04 227.292 18.16L224.572 31H218.812L223.052 11H228.812L228.372 13.08C229.732 11.56 231.359 10.8 233.252 10.8C235.599 10.8 236.972 11.9467 237.372 14.24C238.839 11.9733 240.692 10.84 242.932 10.84C244.292 10.84 245.372 11.2133 246.172 11.96C246.972 12.7067 247.372 13.84 247.372 15.36C247.372 16.1333 247.279 17 247.092 17.96C246.905 18.8933 246.639 20.04 246.292 21.4C246.079 22.2267 245.879 23.04 245.692 23.84C245.532 24.6133 245.452 25.2267 245.452 25.68C245.452 26.2133 245.572 26.6267 245.812 26.92C246.052 27.2133 246.465 27.36 247.052 27.36C247.852 27.36 248.492 27.08 248.972 26.52C249.452 25.9333 249.932 25.04 250.412 23.84H252.092C251.105 26.7733 249.959 28.7467 248.652 29.76C247.372 30.7467 246.039 31.24 244.652 31.24ZM256.25 31.16C254.277 31.16 252.717 30.6533 251.57 29.64C250.423 28.6267 249.85 27.0267 249.85 24.84C249.85 23.0267 250.223 21.0133 250.97 18.8C251.717 16.5867 252.917 14.68 254.57 13.08C256.223 11.4533 258.303 10.64 260.81 10.64C264.223 10.64 265.93 12.7733 265.93 17.04V17.08C266.01 17.1067 266.157 17.12 266.37 17.12C267.25 17.12 268.263 16.8933 269.41 16.44C270.557 15.96 271.597 15.3867 272.53 14.72L272.89 15.8C272.117 16.6267 271.103 17.3333 269.85 17.92C268.623 18.48 267.277 18.88 265.81 19.12C265.597 21.5467 265.05 23.6667 264.17 25.48C263.29 27.2933 262.157 28.6933 260.77 29.68C259.383 30.6667 257.877 31.16 256.25 31.16ZM257.85 27.56C258.49 27.56 259.13 27.2 259.77 26.48C260.41 25.7333 260.97 24.7333 261.45 23.48C261.93 22.2 262.277 20.7867 262.49 19.24C261.77 19.08 261.41 18.52 261.41 17.56C261.41 16.4667 261.823 15.7467 262.65 15.4C262.597 14.52 262.463 13.92 262.25 13.6C262.037 13.2533 261.663 13.08 261.13 13.08C260.25 13.08 259.397 13.72 258.57 15C257.743 16.28 257.077 17.8133 256.57 19.6C256.063 21.3867 255.81 22.96 255.81 24.32C255.81 25.6 255.957 26.4667 256.25 26.92C256.543 27.3467 257.077 27.56 257.85 27.56ZM274.068 31.16C271.855 31.16 270.188 30.5067 269.068 29.2C267.975 27.8933 267.428 26.1467 267.428 23.96C267.428 21.8267 268.002 18.8933 269.148 15.16C270.295 11.4 271.815 8.09333 273.708 5.24C275.602 2.38666 277.642 0.959998 279.828 0.959998C282.762 0.959998 284.228 2.78667 284.228 6.44C284.228 9.02667 283.135 12.2267 280.948 16.04C281.508 16.3067 282.015 16.7067 282.468 17.24C283.642 17.24 284.908 16.9867 286.268 16.48C287.655 15.9733 288.828 15.3867 289.788 14.72L290.148 15.8C289.428 16.5733 288.468 17.2533 287.268 17.84C286.095 18.4 284.802 18.8 283.388 19.04C283.522 19.5467 283.588 20.2133 283.588 21.04C283.588 22.8267 283.202 24.4933 282.428 26.04C281.655 27.5867 280.548 28.8267 279.108 29.76C277.668 30.6933 275.988 31.16 274.068 31.16ZM275.828 27.56C276.655 27.56 277.375 27.28 277.988 26.72C278.628 26.16 279.108 25.4533 279.428 24.6C279.775 23.7467 279.948 22.8667 279.948 21.96C279.948 20.9733 279.828 20.24 279.588 19.76C279.402 19.84 279.202 19.9067 278.988 19.96C278.775 19.9867 278.495 20 278.148 20C277.508 20 277.002 19.8267 276.628 19.48C276.255 19.1333 276.068 18.6533 276.068 18.04C276.068 17.24 276.308 16.6533 276.788 16.28C277.295 15.9067 277.988 15.6933 278.868 15.64C279.642 14.2267 280.295 12.6667 280.828 10.96C281.388 9.22666 281.668 7.66667 281.668 6.28C281.668 5.48 281.562 4.92 281.348 4.6C281.162 4.25333 280.828 4.08 280.348 4.08C279.308 4.08 278.242 5.37333 277.148 7.96C276.082 10.5467 275.188 13.4933 274.468 16.8C273.748 20.1067 273.388 22.5333 273.388 24.08C273.388 26.4 274.202 27.56 275.828 27.56ZM289.917 31.24C288.637 31.24 287.597 30.84 286.797 30.04C286.024 29.24 285.637 28.04 285.637 26.44C285.637 25.7733 285.744 24.9067 285.957 23.84L288.677 11H294.437L291.557 24.6C291.477 25 291.437 25.3733 291.437 25.72C291.437 26.8133 291.837 27.36 292.637 27.36C293.384 27.36 294.024 27.0533 294.557 26.44C295.09 25.8 295.517 24.9333 295.837 23.84L298.557 11H304.317L301.437 24.6C301.33 25 301.277 25.4267 301.277 25.88C301.277 26.4133 301.397 26.8 301.637 27.04C301.904 27.2533 302.33 27.36 302.917 27.36C304.117 27.36 305.024 26.5467 305.637 24.92C306.277 23.2667 306.824 21.2133 307.277 18.76L307.517 17.52L308.877 11H314.637L313.077 18.44C312.997 18.84 312.957 19.2133 312.957 19.56C312.957 20.6533 313.357 21.2 314.157 21.2C314.93 21.2 315.597 20.88 316.157 20.24C316.744 19.6 317.144 18.7467 317.357 17.68L318.757 11H324.517L321.637 24.6C321.53 25 321.477 25.4267 321.477 25.88C321.477 26.4133 321.597 26.8 321.837 27.04C322.104 27.2533 322.53 27.36 323.117 27.36C323.597 27.36 324.024 27.28 324.397 27.12C324.29 28.4533 323.81 29.48 322.957 30.2C322.13 30.8933 321.144 31.24 319.997 31.24C318.717 31.24 317.677 30.84 316.877 30.04C316.104 29.24 315.717 28.04 315.717 26.44C315.717 25.7733 315.824 24.9067 316.037 23.84L316.237 22.84C315.464 23.6933 314.677 24.28 313.877 24.6C313.077 24.92 312.264 25.08 311.437 25.08C309.864 25.08 308.704 24.52 307.957 23.4C307.21 25.7733 306.157 27.68 304.797 29.12C303.464 30.5333 301.797 31.24 299.797 31.24C298.65 31.24 297.73 30.92 297.037 30.28C296.37 29.64 295.97 28.6933 295.837 27.44C294.93 28.9067 293.97 29.9067 292.957 30.44C291.97 30.9733 290.957 31.24 289.917 31.24ZM346.064 17.72L343.104 3.68C341.21 4.4 339.744 5.52 338.704 7.04C337.664 8.53333 337.144 10.3733 337.144 12.56C337.144 13.5467 337.237 14.24 337.424 14.64C337.61 15.0133 337.704 15.2267 337.704 15.28C336.264 15.28 335.184 14.9867 334.464 14.4C333.77 13.7867 333.424 12.7867 333.424 11.4C333.424 9.69333 334.117 8.04 335.504 6.44C336.917 4.81333 338.717 3.50667 340.904 2.52C343.09 1.50666 345.277 0.999998 347.464 0.999998C347.837 0.999998 348.37 1.02666 349.064 1.08L350.784 9.4L355.424 1.2H358.224L351.504 12.84L355.264 31H348.904L346.784 21L340.984 31H338.544L346.064 17.72ZM364.228 41C362.948 41 361.882 40.6667 361.028 40C360.175 39.3333 359.748 38.3733 359.748 37.12C359.748 35.6 360.362 34.3733 361.588 33.44C362.815 32.5333 364.375 31.7733 366.268 31.16L366.748 29C365.975 29.8533 365.188 30.44 364.388 30.76C363.588 31.08 362.775 31.24 361.948 31.24C360.668 31.24 359.628 30.84 358.828 30.04C358.055 29.24 357.668 28.04 357.668 26.44C357.668 25.7733 357.775 24.9067 357.988 23.84L360.708 11H366.468L363.588 24.6C363.508 24.92 363.468 25.2533 363.468 25.6C363.468 26.7733 363.868 27.36 364.668 27.36C365.362 27.36 365.975 27.0667 366.508 26.48C367.042 25.8667 367.468 25.0667 367.788 24.08L370.588 11H376.348L372.388 29.56C373.668 29.1333 374.695 28.4933 375.468 27.64C376.242 26.7867 376.895 25.52 377.428 23.84H379.108C378.388 26.2133 377.415 27.96 376.188 29.08C374.962 30.1733 373.575 30.92 372.028 31.32L371.428 34.2C370.895 36.7867 369.975 38.56 368.668 39.52C367.362 40.5067 365.882 41 364.228 41ZM363.308 37.88C363.762 37.88 364.202 37.5733 364.628 36.96C365.055 36.3467 365.388 35.4667 365.628 34.32L365.868 33.16C363.255 34.12 361.948 35.2533 361.948 36.56C361.948 36.9067 362.068 37.2133 362.308 37.48C362.548 37.7467 362.882 37.88 363.308 37.88ZM384.521 41C383.241 41 382.175 40.6667 381.321 40C380.468 39.3333 380.041 38.3733 380.041 37.12C380.041 35.6 380.655 34.3733 381.881 33.44C383.108 32.5333 384.668 31.7733 386.561 31.16L387.041 29.04C385.681 30.5067 384.081 31.24 382.241 31.24C380.721 31.24 379.455 30.72 378.441 29.68C377.428 28.64 376.921 27.0133 376.921 24.8C376.921 22.8267 377.308 20.76 378.081 18.6C378.881 16.4133 380.055 14.5733 381.601 13.08C383.175 11.56 385.041 10.8 387.201 10.8C388.295 10.8 389.108 10.9867 389.641 11.36C390.175 11.7333 390.441 12.2267 390.441 12.84V13.08L390.881 11H396.641L392.681 29.56C393.961 29.1333 394.988 28.4933 395.761 27.64C396.535 26.7867 397.188 25.52 397.721 23.84H399.401C398.681 26.2133 397.708 27.96 396.481 29.08C395.255 30.1733 393.868 30.92 392.321 31.32L391.721 34.2C391.188 36.7867 390.268 38.56 388.961 39.52C387.655 40.5067 386.175 41 384.521 41ZM384.841 27.36C385.455 27.36 386.081 27.08 386.721 26.52C387.361 25.96 387.801 25.2 388.041 24.24L390.081 14.76C390.081 14.44 389.948 14.12 389.681 13.8C389.415 13.4533 389.001 13.28 388.441 13.28C387.375 13.28 386.415 13.9067 385.561 15.16C384.708 16.3867 384.041 17.88 383.561 19.64C383.081 21.3733 382.841 22.9067 382.841 24.24C382.841 25.5733 383.028 26.4267 383.401 26.8C383.801 27.1733 384.281 27.36 384.841 27.36ZM383.601 37.88C384.055 37.88 384.495 37.5733 384.921 36.96C385.348 36.3467 385.681 35.4667 385.921 34.32L386.161 33.16C383.548 34.12 382.241 35.2533 382.241 36.56C382.241 36.9067 382.361 37.2133 382.601 37.48C382.841 37.7467 383.175 37.88 383.601 37.88ZM402.515 31.24C400.995 31.24 399.728 30.72 398.715 29.68C397.702 28.64 397.195 27.0133 397.195 24.8C397.195 22.8267 397.582 20.76 398.355 18.6C399.155 16.4133 400.328 14.5733 401.875 13.08C403.448 11.56 405.315 10.8 407.475 10.8C408.568 10.8 409.382 10.9867 409.915 11.36C410.448 11.7333 410.715 12.2267 410.715 12.84V13.12L411.155 11H416.915L414.035 24.6C413.928 25 413.875 25.4267 413.875 25.88C413.875 27.0267 414.422 27.6 415.515 27.6C416.262 27.6 416.902 27.2533 417.435 26.56C417.995 25.8667 418.435 24.96 418.755 23.84H420.435C419.448 26.72 418.222 28.68 416.755 29.72C415.315 30.7333 413.862 31.24 412.395 31.24C411.275 31.24 410.368 30.9333 409.675 30.32C409.008 29.68 408.608 28.76 408.475 27.56C407.702 28.6533 406.835 29.5467 405.875 30.24C404.942 30.9067 403.822 31.24 402.515 31.24ZM405.115 27.36C405.782 27.36 406.435 27.0533 407.075 26.44C407.742 25.8 408.195 24.9333 408.435 23.84L410.355 14.8C410.355 14.4533 410.222 14.12 409.955 13.8C409.688 13.4533 409.275 13.28 408.715 13.28C407.648 13.28 406.688 13.9067 405.835 15.16C404.982 16.3867 404.315 17.88 403.835 19.64C403.355 21.3733 403.115 22.9067 403.115 24.24C403.115 25.5733 403.302 26.4267 403.675 26.8C404.075 27.1733 404.555 27.36 405.115 27.36ZM422.73 31.24C421.45 31.24 420.41 30.84 419.61 30.04C418.836 29.24 418.45 28.04 418.45 26.44C418.45 25.7733 418.556 24.9067 418.77 23.84L421.49 11H427.25L424.37 24.6C424.29 25 424.25 25.3733 424.25 25.72C424.25 26.8133 424.65 27.36 425.45 27.36C426.196 27.36 426.836 27.0533 427.37 26.44C427.903 25.8 428.33 24.9333 428.65 23.84L431.37 11H437.13L434.25 24.6C434.143 25 434.09 25.4267 434.09 25.88C434.09 26.4133 434.21 26.8 434.45 27.04C434.716 27.2533 435.143 27.36 435.73 27.36C436.476 27.36 437.116 27.04 437.65 26.4C438.21 25.76 438.65 24.9067 438.97 23.84H440.65C439.663 26.72 438.436 28.68 436.97 29.72C435.53 30.7333 434.076 31.24 432.61 31.24C431.463 31.24 430.543 30.92 429.85 30.28C429.183 29.64 428.783 28.6933 428.65 27.44C427.743 28.9067 426.783 29.9067 425.77 30.44C424.783 30.9733 423.77 31.24 422.73 31.24ZM428.93 9.04C427.276 9.04 425.996 8.73333 425.09 8.12C424.183 7.50667 423.73 6.66667 423.73 5.6C423.73 4.72 423.97 4.01333 424.45 3.48C424.956 2.94667 425.61 2.68 426.41 2.68C427.183 2.68 427.783 2.86667 428.21 3.24C428.663 3.61333 428.89 4.14667 428.89 4.84C428.89 5.69333 428.57 6.33333 427.93 6.76C428.276 6.86667 428.81 6.92 429.53 6.92C430.73 6.92 431.89 6.56 433.01 5.84C434.156 5.09333 435.05 3.89333 435.69 2.24H437.37C436.516 4.72 435.383 6.48 433.97 7.52C432.556 8.53333 430.876 9.04 428.93 9.04ZM444.845 31.16C442.792 31.16 441.205 30.6133 440.085 29.52C438.992 28.4 438.445 26.6933 438.445 24.4C438.445 22.32 438.872 20.3333 439.725 18.44C440.605 16.5467 441.872 15.0133 443.525 13.84C445.178 12.6667 447.125 12.08 449.365 12.08L450.045 12.12C449.618 11.6133 448.965 10.92 448.085 10.04C447.098 9.08 446.365 8.26667 445.885 7.6C445.405 6.90667 445.165 6.14667 445.165 5.32C445.165 4.30667 445.512 3.56 446.205 3.08C446.898 2.6 447.992 2.36 449.485 2.36H455.565H456.805C457.498 2.36 458.005 2.32 458.325 2.24C458.645 2.16 458.898 2 459.085 1.76C459.272 1.49333 459.445 1.05333 459.605 0.439998H461.365C460.938 2.52 460.472 4.06667 459.965 5.08C459.458 6.09333 458.792 6.78667 457.965 7.16C457.165 7.53333 456.045 7.72 454.605 7.72H450.765C450.605 7.72 450.472 7.76 450.365 7.84C450.285 7.89333 450.245 8.01333 450.245 8.2C450.245 8.30666 450.472 8.65333 450.925 9.24C451.912 10.44 452.752 11.7333 453.445 13.12C454.138 14.5067 454.485 16.1333 454.485 18C454.485 20.0267 454.085 22.0667 453.285 24.12C452.512 26.1467 451.392 27.8267 449.925 29.16C448.458 30.4933 446.765 31.16 444.845 31.16ZM446.365 27.56C447.458 27.56 448.365 26.8933 449.085 25.56C449.805 24.2267 450.325 22.72 450.645 21.04C450.992 19.36 451.165 18.0667 451.165 17.16C451.165 16.1467 451.045 15.4533 450.805 15.08C450.565 14.7067 450.178 14.52 449.645 14.52C448.472 14.52 447.485 15.16 446.685 16.44C445.885 17.72 445.285 19.1733 444.885 20.8C444.485 22.4267 444.285 23.6933 444.285 24.6C444.285 25.7467 444.432 26.5333 444.725 26.96C445.045 27.36 445.592 27.56 446.365 27.56ZM461.872 31.24C459.899 31.24 458.366 30.7333 457.272 29.72C456.179 28.68 455.632 27.0667 455.632 24.88C455.632 23.04 455.992 21.0133 456.712 18.8C457.432 16.5867 458.606 14.68 460.232 13.08C461.859 11.4533 463.926 10.64 466.432 10.64C469.366 10.64 470.832 11.92 470.832 14.48C470.832 15.9733 470.406 17.3467 469.552 18.6C468.699 19.8533 467.566 20.8667 466.152 21.64C464.739 22.3867 463.232 22.8133 461.632 22.92C461.579 23.72 461.552 24.2533 461.552 24.52C461.552 25.8267 461.779 26.72 462.232 27.2C462.686 27.6533 463.419 27.88 464.432 27.88C465.872 27.88 467.099 27.5467 468.112 26.88C469.152 26.2133 470.286 25.2 471.512 23.84H472.872C469.912 28.7733 466.246 31.24 461.872 31.24ZM461.952 21C462.939 20.9467 463.872 20.6 464.752 19.96C465.659 19.32 466.379 18.5067 466.912 17.52C467.472 16.5333 467.752 15.4933 467.752 14.4C467.752 13.3067 467.419 12.76 466.752 12.76C465.792 12.76 464.846 13.6 463.912 15.28C463.006 16.96 462.352 18.8667 461.952 21ZM474.544 9.52H480.304L479.664 12.52C480.997 11.3733 482.557 10.8 484.344 10.8C485.837 10.8 487.024 11.2933 487.904 12.28C488.784 13.2667 489.224 14.88 489.224 17.12C489.224 19.2267 488.917 21.36 488.304 23.52C487.691 25.6533 486.651 27.48 485.184 29C483.717 30.4933 481.784 31.24 479.384 31.24C477.677 31.24 476.544 30.76 475.984 29.8L473.904 39.56L467.864 41L474.544 9.52ZM478.144 27.76C479.424 27.76 480.477 27.16 481.304 25.96C482.157 24.76 482.771 23.3333 483.144 21.68C483.544 20 483.744 18.44 483.744 17C483.744 14.7867 483.077 13.68 481.744 13.68C481.264 13.68 480.771 13.8533 480.264 14.2C479.784 14.5467 479.357 15.0267 478.984 15.64L476.624 26.84C476.837 27.4533 477.344 27.76 478.144 27.76ZM497.295 41C496.015 41 494.948 40.6667 494.095 40C493.242 39.3333 492.815 38.3733 492.815 37.12C492.815 35.6 493.428 34.3733 494.655 33.44C495.882 32.5333 497.442 31.7733 499.335 31.16L499.815 29.04C498.455 30.5067 496.855 31.24 495.015 31.24C493.495 31.24 492.228 30.72 491.215 29.68C490.202 28.64 489.695 27.0133 489.695 24.8C489.695 22.8267 490.082 20.76 490.855 18.6C491.655 16.4133 492.828 14.5733 494.375 13.08C495.948 11.56 497.815 10.8 499.975 10.8C501.068 10.8 501.882 10.9867 502.415 11.36C502.948 11.7333 503.215 12.2267 503.215 12.84V13.08L503.655 11H509.415L505.455 29.56C506.735 29.1333 507.762 28.4933 508.535 27.64C509.308 26.7867 509.962 25.52 510.495 23.84H512.175C511.455 26.2133 510.482 27.96 509.255 29.08C508.028 30.1733 506.642 30.92 505.095 31.32L504.495 34.2C503.962 36.7867 503.042 38.56 501.735 39.52C500.428 40.5067 498.948 41 497.295 41ZM497.615 27.36C498.228 27.36 498.855 27.08 499.495 26.52C500.135 25.96 500.575 25.2 500.815 24.24L502.855 14.76C502.855 14.44 502.722 14.12 502.455 13.8C502.188 13.4533 501.775 13.28 501.215 13.28C500.148 13.28 499.188 13.9067 498.335 15.16C497.482 16.3867 496.815 17.88 496.335 19.64C495.855 21.3733 495.615 22.9067 495.615 24.24C495.615 25.5733 495.802 26.4267 496.175 26.8C496.575 27.1733 497.055 27.36 497.615 27.36ZM496.375 37.88C496.828 37.88 497.268 37.5733 497.695 36.96C498.122 36.3467 498.455 35.4667 498.695 34.32L498.935 33.16C496.322 34.12 495.015 35.2533 495.015 36.56C495.015 36.9067 495.135 37.2133 495.375 37.48C495.615 37.7467 495.948 37.88 496.375 37.88ZM514.448 31.24C513.168 31.24 512.128 30.84 511.328 30.04C510.555 29.24 510.168 28.04 510.168 26.44C510.168 25.7733 510.275 24.9067 510.488 23.84L513.208 11H518.968L516.088 24.6C516.008 25 515.968 25.3733 515.968 25.72C515.968 26.8133 516.368 27.36 517.168 27.36C517.915 27.36 518.555 27.0533 519.088 26.44C519.622 25.8 520.048 24.9333 520.368 23.84L523.088 11H528.848L525.968 24.6C525.862 25 525.808 25.4267 525.808 25.88C525.808 26.4133 525.928 26.8 526.168 27.04C526.435 27.2533 526.862 27.36 527.448 27.36C528.195 27.36 528.835 27.04 529.368 26.4C529.928 25.76 530.368 24.9067 530.688 23.84H532.368C531.382 26.72 530.155 28.68 528.688 29.72C527.248 30.7333 525.795 31.24 524.328 31.24C523.182 31.24 522.262 30.92 521.568 30.28C520.902 29.64 520.502 28.6933 520.368 27.44C519.462 28.9067 518.502 29.9067 517.488 30.44C516.502 30.9733 515.488 31.24 514.448 31.24ZM544.524 31.24C543.35 31.24 542.39 30.84 541.644 30.04C540.924 29.24 540.564 28.04 540.564 26.44C540.564 25.5867 540.844 23.9067 541.404 21.4H536.964L534.924 31H529.164L533.404 11H539.164L537.444 19H541.924L543.724 11H549.084L546.164 24.6C546.057 25 546.004 25.3733 546.004 25.72C546.004 26.8133 546.55 27.36 547.644 27.36C548.124 27.36 548.55 27.28 548.924 27.12C548.817 28.4533 548.337 29.48 547.484 30.2C546.657 30.8933 545.67 31.24 544.524 31.24ZM555.882 19.16C555.002 19.16 554.255 18.8533 553.642 18.24C553.029 17.6267 552.722 16.88 552.722 16C552.722 15.12 553.029 14.3733 553.642 13.76C554.255 13.12 555.002 12.8 555.882 12.8C556.762 12.8 557.509 13.12 558.122 13.76C558.762 14.3733 559.082 15.12 559.082 16C559.082 16.88 558.762 17.6267 558.122 18.24C557.509 18.8533 556.762 19.16 555.882 19.16ZM553.882 28.76C553.002 28.76 552.255 28.4533 551.642 27.84C551.029 27.2267 550.722 26.48 550.722 25.6C550.722 24.72 551.029 23.9733 551.642 23.36C552.255 22.72 553.002 22.4 553.882 22.4C554.762 22.4 555.509 22.72 556.122 23.36C556.762 23.9733 557.082 24.72 557.082 25.6C557.082 26.48 556.762 27.2267 556.122 27.84C555.509 28.4533 554.762 28.76 553.882 28.76Z" fill="#CC4545"/>
<path d="M574.538 6.04H570.738L571.218 4.2C572.685 4.2 574.205 4 575.778 3.6C577.351 3.2 579.218 2.36 581.378 1.08L575.018 31H569.258L574.538 6.04ZM594.024 31.48C593.491 31.48 592.931 31.4133 592.344 31.28C591.784 31.1467 591.091 30.96 590.264 30.72C589.277 30.4267 588.464 30.2133 587.824 30.08C587.184 29.9467 586.517 29.88 585.824 29.88C584.331 29.88 582.864 30.2667 581.424 31.04H581.264C581.104 30.4 581.024 29.7733 581.024 29.16C581.024 28.04 581.304 26.9467 581.864 25.88C582.451 24.7867 583.157 23.7867 583.984 22.88C584.811 21.9733 585.944 20.8133 587.384 19.4C588.904 17.9333 590.131 16.68 591.064 15.64C591.997 14.5733 592.784 13.4133 593.424 12.16C594.064 10.88 594.384 9.54666 594.384 8.16C594.384 6.64 594.131 5.44 593.624 4.56C593.144 3.68 592.397 3.24 591.384 3.24C590.451 3.24 589.691 3.56 589.104 4.2C588.517 4.81333 588.224 5.57333 588.224 6.48C588.224 7.38666 588.397 8.2 588.744 8.92C589.117 9.61333 589.584 10.12 590.144 10.44V10.6C589.691 11.0267 589.197 11.36 588.664 11.6C588.131 11.84 587.611 11.96 587.104 11.96C586.277 11.96 585.584 11.5867 585.024 10.84C584.491 10.0933 584.224 9.08 584.224 7.8C584.224 6.68 584.544 5.6 585.184 4.56C585.851 3.52 586.824 2.66667 588.104 2C589.384 1.33333 590.891 0.999998 592.624 0.999998C594.944 0.999998 596.811 1.65333 598.224 2.96C599.664 4.24 600.384 6.01333 600.384 8.28C600.384 9.72 600.011 11.0533 599.264 12.28C598.544 13.5067 597.651 14.6 596.584 15.56C595.517 16.52 594.091 17.68 592.304 19.04C590.544 20.3733 589.144 21.52 588.104 22.48C587.064 23.44 586.264 24.4533 585.704 25.52C586.477 25.3067 587.304 25.2 588.184 25.2C588.824 25.2 589.491 25.2533 590.184 25.36C590.877 25.4667 591.531 25.5867 592.144 25.72C592.251 25.7467 592.597 25.8267 593.184 25.96C593.797 26.0667 594.344 26.12 594.824 26.12C595.544 26.12 596.211 25.9733 596.824 25.68C597.437 25.36 598.077 24.8267 598.744 24.08L598.864 24.16C599.211 25.1467 599.384 25.9733 599.384 26.64C599.384 27.5733 599.131 28.4133 598.624 29.16C598.144 29.88 597.491 30.4533 596.664 30.88C595.837 31.28 594.957 31.48 594.024 31.48ZM608.876 31.2C606.529 31.2 604.729 30.6933 603.476 29.68C602.223 28.6667 601.596 27.2267 601.596 25.36C601.596 23.68 602.076 22.3333 603.036 21.32C603.996 20.28 605.249 19.76 606.796 19.76C608.423 19.76 609.369 20.44 609.636 21.8C608.543 21.9333 607.663 22.3333 606.996 23C606.356 23.64 606.036 24.48 606.036 25.52C606.036 26.4533 606.316 27.1867 606.876 27.72C607.436 28.2533 608.183 28.52 609.116 28.52C610.663 28.52 611.929 27.8267 612.916 26.44C613.903 25.0533 614.396 23.28 614.396 21.12C614.396 19.28 614.009 17.8667 613.236 16.88C612.463 15.8667 611.383 15.36 609.996 15.36C608.583 15.36 606.836 15.96 604.756 17.16L604.236 16.8L607.316 1.64C610.329 1.98667 612.569 2.16 614.036 2.16C616.463 2.16 618.783 1.78667 620.996 1.04C621.049 1.62666 621.076 2.06666 621.076 2.36C621.076 3.74667 620.703 4.86667 619.956 5.72C619.236 6.57333 618.076 7 616.476 7C615.863 7 615.129 6.93333 614.276 6.8C613.423 6.66667 612.609 6.52 611.836 6.36C611.169 6.22666 610.489 6.10667 609.796 6L608.196 13.24C609.929 12.4133 611.583 12 613.156 12C615.343 12 617.063 12.7467 618.316 14.24C619.596 15.7067 620.236 17.7067 620.236 20.24C620.236 22.4 619.756 24.3067 618.796 25.96C617.863 27.6133 616.529 28.9067 614.796 29.84C613.089 30.7467 611.116 31.2 608.876 31.2ZM633.492 31.24C632.052 31.24 630.919 30.8 630.092 29.92C629.239 29.0133 628.812 27.92 628.812 26.64C628.812 25.7333 629.025 25.0133 629.452 24.48C629.879 23.92 630.465 23.64 631.212 23.64C631.852 23.64 632.372 23.84 632.772 24.24C633.172 24.64 633.372 25.12 633.372 25.68C633.372 26.32 633.212 26.8133 632.892 27.16C632.572 27.48 632.199 27.6133 631.772 27.56C631.772 28.5733 632.292 29.08 633.332 29.08C634.052 29.08 634.652 28.8 635.132 28.24C635.612 27.6533 636.025 26.7867 636.372 25.64C636.719 24.4933 637.079 22.92 637.452 20.92C637.959 18.2267 638.545 16.16 639.212 14.72C639.905 13.28 640.692 12.3067 641.572 11.8C642.479 11.2667 643.585 11 644.892 11H650.772L648.652 20.92C648.385 22.0667 648.159 23.0667 647.972 23.92C647.785 24.7733 647.692 25.36 647.692 25.68C647.692 26.8 648.225 27.36 649.292 27.36C650.039 27.36 650.639 27.1067 651.092 26.6C651.545 26.0933 652.065 25.1733 652.652 23.84H654.332C652.652 28.7733 650.132 31.24 646.772 31.24C645.305 31.24 644.172 30.8267 643.372 30C642.572 29.1733 642.172 28.1733 642.172 27C642.172 26.0667 642.465 24.2533 643.052 21.56L644.932 13.04C643.919 13.04 643.092 13.2533 642.452 13.68C641.839 14.1067 641.319 14.8267 640.892 15.84C640.465 16.8533 640.065 18.28 639.692 20.12C639.105 23.1333 638.599 25.36 638.172 26.8C637.772 28.2133 637.212 29.3067 636.492 30.08C635.772 30.8533 634.772 31.24 633.492 31.24ZM658.357 31.24C656.383 31.24 654.85 30.7333 653.757 29.72C652.663 28.68 652.117 27.0667 652.117 24.88C652.117 23.04 652.477 21.0133 653.197 18.8C653.917 16.5867 655.09 14.68 656.717 13.08C658.343 11.4533 660.41 10.64 662.917 10.64C665.85 10.64 667.317 11.92 667.317 14.48C667.317 15.9733 666.89 17.3467 666.037 18.6C665.183 19.8533 664.05 20.8667 662.637 21.64C661.223 22.3867 659.717 22.8133 658.117 22.92C658.063 23.72 658.037 24.2533 658.037 24.52C658.037 25.8267 658.263 26.72 658.717 27.2C659.17 27.6533 659.903 27.88 660.917 27.88C662.357 27.88 663.583 27.5467 664.597 26.88C665.637 26.2133 666.77 25.2 667.997 23.84H669.357C666.397 28.7733 662.73 31.24 658.357 31.24ZM658.437 21C659.423 20.9467 660.357 20.6 661.237 19.96C662.143 19.32 662.863 18.5067 663.397 17.52C663.957 16.5333 664.237 15.4933 664.237 14.4C664.237 13.3067 663.903 12.76 663.237 12.76C662.277 12.76 661.33 13.6 660.397 15.28C659.49 16.96 658.837 18.8667 658.437 21ZM691.628 31.24C690.215 31.24 689.188 30.8133 688.548 29.96C687.908 29.1067 687.588 28.0267 687.588 26.72C687.588 26.16 687.655 25.5333 687.788 24.84C687.922 24.12 688.055 23.4267 688.188 22.76C688.348 22.0933 688.455 21.6667 688.508 21.48C688.722 20.5467 688.922 19.6267 689.108 18.72C689.295 17.8133 689.388 17.08 689.388 16.52C689.388 15.16 688.908 14.48 687.948 14.48C687.255 14.48 686.642 14.8267 686.108 15.52C685.575 16.1867 685.148 17.0667 684.828 18.16L682.108 31H676.348L679.268 17.2C679.348 16.88 679.388 16.5467 679.388 16.2C679.388 15.0267 678.988 14.44 678.188 14.44C677.442 14.44 676.788 14.7867 676.228 15.48C675.695 16.1467 675.268 17.04 674.948 18.16L672.228 31H666.468L670.708 11H676.468L676.028 13.08C677.388 11.56 679.015 10.8 680.908 10.8C683.255 10.8 684.628 11.9467 685.028 14.24C686.495 11.9733 688.348 10.84 690.588 10.84C691.948 10.84 693.028 11.2133 693.828 11.96C694.628 12.7067 695.028 13.84 695.028 15.36C695.028 16.1333 694.935 17 694.748 17.96C694.562 18.8933 694.295 20.04 693.948 21.4C693.735 22.2267 693.535 23.04 693.348 23.84C693.188 24.6133 693.108 25.2267 693.108 25.68C693.108 26.2133 693.228 26.6267 693.468 26.92C693.708 27.2133 694.122 27.36 694.708 27.36C695.348 27.36 695.788 27.28 696.028 27.12C695.868 28.48 695.375 29.5067 694.548 30.2C693.748 30.8933 692.775 31.24 691.628 31.24ZM710.427 31.24C708.454 31.24 706.92 30.7333 705.827 29.72C704.734 28.68 704.187 27.0667 704.187 24.88C704.187 23.04 704.547 21.0133 705.267 18.8C706.014 16.5867 707.187 14.68 708.787 13.08C710.414 11.4533 712.467 10.64 714.947 10.64C716.547 10.64 717.68 10.9867 718.347 11.68C719.04 12.3733 719.387 13.2533 719.387 14.32C719.387 15.2533 719.187 15.9733 718.787 16.48C718.387 16.9867 717.88 17.24 717.267 17.24C716.814 17.24 716.347 17.08 715.867 16.76C716.187 15.88 716.347 15.0933 716.347 14.4C716.347 13.8933 716.254 13.4933 716.067 13.2C715.88 12.9067 715.6 12.76 715.227 12.76C714.427 12.76 713.627 13.4133 712.827 14.72C712.027 16.0267 711.374 17.6133 710.867 19.48C710.36 21.3467 710.107 23.0267 710.107 24.52C710.107 25.8267 710.334 26.72 710.787 27.2C711.24 27.6533 711.974 27.88 712.987 27.88C714.427 27.88 715.654 27.5467 716.667 26.88C717.707 26.2133 718.84 25.2 720.067 23.84H721.427C718.467 28.7733 714.8 31.24 710.427 31.24ZM725.899 31.16C723.925 31.16 722.365 30.6533 721.219 29.64C720.072 28.6267 719.499 27.0267 719.499 24.84C719.499 23.0267 719.872 21.0133 720.619 18.8C721.365 16.5867 722.565 14.68 724.219 13.08C725.872 11.4533 727.952 10.64 730.459 10.64C733.872 10.64 735.579 12.7867 735.579 17.08C735.579 19.7467 735.165 22.16 734.339 24.32C733.512 26.4533 732.352 28.1333 730.859 29.36C729.392 30.56 727.739 31.16 725.899 31.16ZM727.499 27.56C728.405 27.56 729.219 26.9467 729.939 25.72C730.685 24.4667 731.259 22.92 731.659 21.08C732.085 19.2133 732.299 17.4533 732.299 15.8C732.299 14.8667 732.192 14.1867 731.979 13.76C731.765 13.3067 731.365 13.08 730.779 13.08C729.899 13.08 729.045 13.72 728.219 15C727.392 16.28 726.725 17.8133 726.219 19.6C725.712 21.3867 725.459 22.96 725.459 24.32C725.459 25.6 725.605 26.4667 725.899 26.92C726.192 27.3467 726.725 27.56 727.499 27.56ZM753.389 41C752.109 41 751.042 40.6667 750.189 40C749.335 39.3333 748.909 38.3733 748.909 37.12C748.909 35.6 749.522 34.3733 750.749 33.44C751.975 32.5333 753.535 31.7733 755.429 31.16L755.909 29.04C754.549 30.5067 752.949 31.24 751.109 31.24C749.589 31.24 748.322 30.72 747.309 29.68C746.295 28.64 745.789 27.0133 745.789 24.8C745.789 22.8267 746.175 20.76 746.949 18.6C747.749 16.4133 748.922 14.5733 750.469 13.08C752.042 11.56 753.909 10.8 756.069 10.8C757.162 10.8 757.975 10.9867 758.509 11.36C759.042 11.7333 759.309 12.2267 759.309 12.84V13.08L759.749 11H765.509L761.549 29.56C762.829 29.1333 763.855 28.4933 764.629 27.64C765.402 26.7867 766.055 25.52 766.589 23.84H768.269C767.549 26.2133 766.575 27.96 765.349 29.08C764.122 30.1733 762.735 30.92 761.189 31.32L760.589 34.2C760.055 36.7867 759.135 38.56 757.829 39.52C756.522 40.5067 755.042 41 753.389 41ZM753.709 27.36C754.322 27.36 754.949 27.08 755.589 26.52C756.229 25.96 756.669 25.2 756.909 24.24L758.949 14.76C758.949 14.44 758.815 14.12 758.549 13.8C758.282 13.4533 757.869 13.28 757.309 13.28C756.242 13.28 755.282 13.9067 754.429 15.16C753.575 16.3867 752.909 17.88 752.429 19.64C751.949 21.3733 751.709 22.9067 751.709 24.24C751.709 25.5733 751.895 26.4267 752.269 26.8C752.669 27.1733 753.149 27.36 753.709 27.36ZM752.469 37.88C752.922 37.88 753.362 37.5733 753.789 36.96C754.215 36.3467 754.549 35.4667 754.789 34.32L755.029 33.16C752.415 34.12 751.109 35.2533 751.109 36.56C751.109 36.9067 751.229 37.2133 751.469 37.48C751.709 37.7467 752.042 37.88 752.469 37.88ZM781.102 31.24C779.582 31.24 778.409 30.84 777.582 30.04C776.782 29.2133 776.382 28.2 776.382 27C776.382 26.2267 776.689 24.36 777.302 21.4H772.862L770.822 31H765.062L769.302 11H775.062L773.342 19H777.822L779.622 11H784.982L782.862 20.92C782.595 22.0667 782.369 23.0667 782.182 23.92C781.995 24.7733 781.902 25.36 781.902 25.68C781.902 26.8 782.435 27.36 783.502 27.36C784.249 27.36 784.849 27.1067 785.302 26.6C785.755 26.0933 786.275 25.1733 786.862 23.84H788.542C786.862 28.7733 784.382 31.24 781.102 31.24ZM789.815 31.24C788.375 31.24 787.269 30.8133 786.495 29.96C785.722 29.08 785.335 28 785.335 26.72C785.335 25.76 785.562 24.9867 786.015 24.4C786.442 23.8133 787.042 23.52 787.815 23.52C788.429 23.52 788.922 23.72 789.295 24.12C789.695 24.4933 789.895 24.9867 789.895 25.6C789.895 26.24 789.735 26.72 789.415 27.04C789.122 27.36 788.749 27.4933 788.295 27.44C788.322 27.7867 788.455 28.0933 788.695 28.36C788.935 28.6 789.322 28.72 789.855 28.72C790.709 28.72 791.362 28.24 791.815 27.28C792.295 26.32 792.775 24.7467 793.255 22.56C792.082 22.32 791.149 21.8133 790.455 21.04C789.789 20.2667 789.455 19.2267 789.455 17.92C789.455 15.8667 790.282 14.2 791.935 12.92C793.589 11.64 796.269 11 799.975 11H806.055L803.935 20.92C803.669 22.0667 803.442 23.0667 803.255 23.92C803.069 24.7733 802.975 25.36 802.975 25.68C802.975 26.8 803.509 27.36 804.575 27.36C805.082 27.36 805.535 27.24 805.935 27C805.642 29.5333 804.389 30.9467 802.175 31.24C800.655 31.24 799.482 30.84 798.655 30.04C797.855 29.2133 797.455 28.2 797.455 27C797.455 26.2267 797.695 24.7333 798.175 22.52C797.455 22.68 796.709 22.76 795.935 22.76C795.455 24.8133 794.989 26.4267 794.535 27.6C794.082 28.7733 793.482 29.68 792.735 30.32C791.989 30.9333 791.015 31.24 789.815 31.24ZM797.895 20.88C798.189 20.88 798.402 20.8533 798.535 20.8L800.215 13.16H799.255C797.709 13.16 796.522 13.5867 795.695 14.44C794.895 15.2667 794.495 16.3867 794.495 17.8C794.495 19.8533 795.455 20.88 797.375 20.88H797.895ZM817.786 9.52H823.546L822.906 12.52C824.239 11.3733 825.799 10.8 827.586 10.8C829.079 10.8 830.266 11.2933 831.146 12.28C832.026 13.2667 832.466 14.88 832.466 17.12C832.466 19.2267 832.159 21.36 831.546 23.52C830.933 25.6533 829.893 27.48 828.426 29C826.959 30.4933 825.026 31.24 822.626 31.24C820.919 31.24 819.786 30.76 819.226 29.8L817.146 39.56L811.106 41L817.786 9.52ZM821.386 27.76C822.666 27.76 823.719 27.16 824.546 25.96C825.399 24.76 826.013 23.3333 826.386 21.68C826.786 20 826.986 18.44 826.986 17C826.986 14.7867 826.319 13.68 824.986 13.68C824.506 13.68 824.013 13.8533 823.506 14.2C823.026 14.5467 822.599 15.0267 822.226 15.64L819.866 26.84C820.079 27.4533 820.586 27.76 821.386 27.76ZM853.657 31.24C851.87 31.24 850.604 30.84 849.857 30.04C849.11 29.24 848.737 28.2267 848.737 27C848.737 25.9067 848.964 25.08 849.417 24.52C849.87 23.9333 850.457 23.64 851.177 23.64C851.684 23.64 852.137 23.8267 852.537 24.2C852.19 25.1333 852.017 26.04 852.017 26.92C852.017 27.6133 852.15 28.16 852.417 28.56C852.71 28.9333 853.057 29.12 853.457 29.12C854.177 29.12 854.87 28.52 855.537 27.32C856.23 26.12 856.777 24.6267 857.177 22.84C857.604 21.0533 857.817 19.3733 857.817 17.8C857.817 16.3067 857.63 15.24 857.257 14.6C856.91 13.9333 856.377 13.6 855.657 13.6C854.884 13.6 853.99 14.0267 852.977 14.88C851.99 15.7333 850.63 17.1467 848.897 19.12H848.857C848.644 21.5467 848.097 23.6667 847.217 25.48C846.337 27.2933 845.204 28.6933 843.817 29.68C842.43 30.6667 840.924 31.16 839.297 31.16C837.324 31.16 835.764 30.6533 834.617 29.64C833.47 28.6267 832.897 27.0267 832.897 24.84C832.897 23.0267 833.27 21.0133 834.017 18.8C834.764 16.5867 835.964 14.68 837.617 13.08C839.27 11.4533 841.35 10.64 843.857 10.64C847.164 10.64 848.87 12.6533 848.977 16.68C850.177 14.9733 851.23 13.68 852.137 12.8C853.07 11.92 853.924 11.3467 854.697 11.08C855.47 10.7867 856.337 10.64 857.297 10.64C858.844 10.64 860.124 11.2133 861.137 12.36C862.177 13.5067 862.697 15.0533 862.697 17C862.697 17.6133 862.657 18.28 862.577 19H864.977L866.657 11H872.017L870.337 19H872.577C873.297 16.5733 874.337 14.5733 875.697 13C877.057 11.4267 878.75 10.64 880.777 10.64C882.27 10.64 883.324 11 883.937 11.72C884.577 12.4133 884.897 13.28 884.897 14.32C884.897 15.2533 884.697 15.9733 884.297 16.48C883.924 16.9867 883.444 17.24 882.857 17.24C882.377 17.24 881.91 17.08 881.457 16.76C881.724 15.88 881.857 15.0933 881.857 14.4C881.857 13.8933 881.777 13.4933 881.617 13.2C881.457 12.9067 881.23 12.76 880.937 12.76C880.27 12.76 879.59 13.3733 878.897 14.6C878.23 15.8 877.684 17.2933 877.257 19.08C876.83 20.84 876.617 22.5067 876.617 24.08C876.617 25.4933 876.884 26.5467 877.417 27.24C877.95 27.9333 878.67 28.28 879.577 28.28C880.564 28.28 881.47 27.9067 882.297 27.16C883.15 26.4133 883.817 25.3067 884.297 23.84H885.977C885.257 25.8933 884.164 27.64 882.697 29.08C881.23 30.52 879.524 31.24 877.577 31.24C875.764 31.24 874.337 30.6667 873.297 29.52C872.257 28.3733 871.737 26.8267 871.737 24.88C871.737 23.4933 871.844 22.3333 872.057 21.4H869.777L867.777 31H862.417L864.457 21.4H862.177C861.617 24.0933 860.617 26.4133 859.177 28.36C857.737 30.28 855.897 31.24 853.657 31.24ZM840.897 27.56C841.537 27.56 842.177 27.2 842.817 26.48C843.457 25.7333 844.017 24.7333 844.497 23.48C844.977 22.2 845.324 20.7867 845.537 19.24C844.817 19.08 844.457 18.52 844.457 17.56C844.457 16.4667 844.87 15.7467 845.697 15.4C845.644 14.52 845.51 13.92 845.297 13.6C845.084 13.2533 844.71 13.08 844.177 13.08C843.297 13.08 842.444 13.72 841.617 15C840.79 16.28 840.124 17.8133 839.617 19.6C839.11 21.3867 838.857 22.96 838.857 24.32C838.857 25.6 839.004 26.4667 839.297 26.92C839.59 27.3467 840.124 27.56 840.897 27.56ZM891.396 41C890.116 41 889.05 40.6667 888.196 40C887.343 39.3333 886.916 38.3733 886.916 37.12C886.916 35.6 887.53 34.3733 888.756 33.44C889.983 32.5333 891.543 31.7733 893.436 31.16L893.916 29.04C892.556 30.5067 890.956 31.24 889.116 31.24C887.596 31.24 886.33 30.72 885.316 29.68C884.303 28.64 883.796 27.0133 883.796 24.8C883.796 22.8267 884.183 20.76 884.956 18.6C885.756 16.4133 886.93 14.5733 888.476 13.08C890.05 11.56 891.916 10.8 894.076 10.8C895.17 10.8 895.983 10.9867 896.516 11.36C897.05 11.7333 897.316 12.2267 897.316 12.84V13.08L897.756 11H903.516L899.556 29.56C900.836 29.1333 901.863 28.4933 902.636 27.64C903.41 26.7867 904.063 25.52 904.596 23.84H906.276C905.556 26.2133 904.583 27.96 903.356 29.08C902.13 30.1733 900.743 30.92 899.196 31.32L898.596 34.2C898.063 36.7867 897.143 38.56 895.836 39.52C894.53 40.5067 893.05 41 891.396 41ZM891.716 27.36C892.33 27.36 892.956 27.08 893.596 26.52C894.236 25.96 894.676 25.2 894.916 24.24L896.956 14.76C896.956 14.44 896.823 14.12 896.556 13.8C896.29 13.4533 895.876 13.28 895.316 13.28C894.25 13.28 893.29 13.9067 892.436 15.16C891.583 16.3867 890.916 17.88 890.436 19.64C889.956 21.3733 889.716 22.9067 889.716 24.24C889.716 25.5733 889.903 26.4267 890.276 26.8C890.676 27.1733 891.156 27.36 891.716 27.36ZM890.476 37.88C890.93 37.88 891.37 37.5733 891.796 36.96C892.223 36.3467 892.556 35.4667 892.796 34.32L893.036 33.16C890.423 34.12 889.116 35.2533 889.116 36.56C889.116 36.9067 889.236 37.2133 889.476 37.48C889.716 37.7467 890.05 37.88 890.476 37.88ZM910.31 31.24C908.337 31.24 906.803 30.7333 905.71 29.72C904.617 28.68 904.07 27.0667 904.07 24.88C904.07 23.04 904.43 21.0133 905.15 18.8C905.87 16.5867 907.043 14.68 908.67 13.08C910.297 11.4533 912.363 10.64 914.87 10.64C917.803 10.64 919.27 11.92 919.27 14.48C919.27 15.9733 918.843 17.3467 917.99 18.6C917.137 19.8533 916.003 20.8667 914.59 21.64C913.177 22.3867 911.67 22.8133 910.07 22.92C910.017 23.72 909.99 24.2533 909.99 24.52C909.99 25.8267 910.217 26.72 910.67 27.2C911.123 27.6533 911.857 27.88 912.87 27.88C914.31 27.88 915.537 27.5467 916.55 26.88C917.59 26.2133 918.723 25.2 919.95 23.84H921.31C918.35 28.7733 914.683 31.24 910.31 31.24ZM910.39 21C911.377 20.9467 912.31 20.6 913.19 19.96C914.097 19.32 914.817 18.5067 915.35 17.52C915.91 16.5333 916.19 15.4933 916.19 14.4C916.19 13.3067 915.857 12.76 915.19 12.76C914.23 12.76 913.283 13.6 912.35 15.28C911.443 16.96 910.79 18.8667 910.39 21ZM934.461 31.24C932.941 31.24 931.768 30.84 930.941 30.04C930.141 29.2133 929.741 28.2 929.741 27C929.741 26.2267 930.048 24.36 930.661 21.4H926.221L924.181 31H918.421L922.661 11H928.421L926.701 19H931.181L932.981 11H938.341L936.221 20.92C935.955 22.0667 935.728 23.0667 935.541 23.92C935.355 24.7733 935.261 25.36 935.261 25.68C935.261 26.8 935.795 27.36 936.861 27.36C937.608 27.36 938.208 27.1067 938.661 26.6C939.115 26.0933 939.635 25.1733 940.221 23.84H941.901C940.221 28.7733 937.741 31.24 934.461 31.24ZM944.175 31.24C942.895 31.24 941.855 30.84 941.055 30.04C940.282 29.24 939.895 28.04 939.895 26.44C939.895 25.7733 940.002 24.9067 940.215 23.84L942.935 11H948.695L945.815 24.6C945.735 25 945.695 25.3733 945.695 25.72C945.695 26.8133 946.095 27.36 946.895 27.36C947.642 27.36 948.282 27.0533 948.815 26.44C949.348 25.8 949.775 24.9333 950.095 23.84L952.815 11H958.575L955.695 24.6C955.588 25 955.535 25.4267 955.535 25.88C955.535 26.4133 955.655 26.8 955.895 27.04C956.162 27.2533 956.588 27.36 957.175 27.36C957.922 27.36 958.562 27.04 959.095 26.4C959.655 25.76 960.095 24.9067 960.415 23.84H962.095C961.108 26.72 959.882 28.68 958.415 29.72C956.975 30.7333 955.522 31.24 954.055 31.24C952.908 31.24 951.988 30.92 951.295 30.28C950.628 29.64 950.228 28.6933 950.095 27.44C949.188 28.9067 948.228 29.9067 947.215 30.44C946.228 30.9733 945.215 31.24 944.175 31.24ZM963.37 31.24C961.93 31.24 960.823 30.8133 960.05 29.96C959.277 29.08 958.89 28 958.89 26.72C958.89 25.76 959.117 24.9867 959.57 24.4C959.997 23.8133 960.597 23.52 961.37 23.52C961.983 23.52 962.477 23.72 962.85 24.12C963.25 24.4933 963.45 24.9867 963.45 25.6C963.45 26.24 963.29 26.72 962.97 27.04C962.677 27.36 962.303 27.4933 961.85 27.44C961.877 27.7867 962.01 28.0933 962.25 28.36C962.49 28.6 962.877 28.72 963.41 28.72C964.263 28.72 964.917 28.24 965.37 27.28C965.85 26.32 966.33 24.7467 966.81 22.56C965.637 22.32 964.703 21.8133 964.01 21.04C963.343 20.2667 963.01 19.2267 963.01 17.92C963.01 15.8667 963.837 14.2 965.49 12.92C967.143 11.64 969.823 11 973.53 11H979.61L977.49 20.92C977.223 22.0667 976.997 23.0667 976.81 23.92C976.623 24.7733 976.53 25.36 976.53 25.68C976.53 26.8 977.063 27.36 978.13 27.36C978.637 27.36 979.09 27.24 979.49 27C979.197 29.5333 977.943 30.9467 975.73 31.24C974.21 31.24 973.037 30.84 972.21 30.04C971.41 29.2133 971.01 28.2 971.01 27C971.01 26.2267 971.25 24.7333 971.73 22.52C971.01 22.68 970.263 22.76 969.49 22.76C969.01 24.8133 968.543 26.4267 968.09 27.6C967.637 28.7733 967.037 29.68 966.29 30.32C965.543 30.9333 964.57 31.24 963.37 31.24ZM971.45 20.88C971.743 20.88 971.957 20.8533 972.09 20.8L973.77 13.16H972.81C971.263 13.16 970.077 13.5867 969.25 14.44C968.45 15.2667 968.05 16.3867 968.05 17.8C968.05 19.8533 969.01 20.88 970.93 20.88H971.45Z" fill="#127AA7"/>
</g>
<defs>
<filter id="filter0_i" x="0.851105" y="0.440002" width="978.759" height="41.9886" filterUnits="userSpaceOnUse" color-interpolation-filters="sRGB">
<feFlood flood-opacity="0" result="BackgroundImageFix"/>
<feBlend mode="normal" in="SourceGraphic" in2="BackgroundImageFix" result="shape"/>
<feColorMatrix in="SourceAlpha" type="matrix" values="0 0 0 0 0 0 0 0 0 0 0 0 0 0 0 0 0 0 127 0" result="hardAlpha"/>
<feOffset dy="7.14286"/>
<feGaussianBlur stdDeviation="0.714286"/>
<feComposite in2="hardAlpha" operator="arithmetic" k2="-1" k3="1"/>
<feColorMatrix type="matrix" values="0 0 0 0 1 0 0 0 0 1 0 0 0 0 1 0 0 0 0.25 0"/>
<feBlend mode="normal" in2="shape" result="effect1_innerShadow"/>
</filter>
</defs>
</svg>
